<?xml version="1.0" encoding="UTF-8" standalone="no"?>
<!-- Uploaded to: SVG Repo, www.svgrepo.com, Generator: SVG Repo Mixer Tools -->

<svg
   fill="#000000"
   width="55"
   height="55"
   viewBox="0 0 2.2 2.2"
   id="icon"
   version="1.1"
   sodipodi:docname="chatbot.svg"
   inkscape:version="1.3.2 (091e20e, 2023-11-25, custom)"
   xmlns:inkscape="http://www.inkscape.org/namespaces/inkscape"
   xmlns:sodipodi="http://sodipodi.sourceforge.net/DTD/sodipodi-0.dtd"
   xmlns="http://www.w3.org/2000/svg"
   xmlns:svg="http://www.w3.org/2000/svg">
  <sodipodi:namedview
     id="namedview4"
     pagecolor="#ffffff"
     bordercolor="#000000"
     borderopacity="0.25"
     inkscape:showpageshadow="2"
     inkscape:pageopacity="0.0"
     inkscape:pagecheckerboard="0"
     inkscape:deskcolor="#d1d1d1"
     showgrid="false"
     inkscape:zoom="8.6337738"
     inkscape:cx="-855.36177"
     inkscape:cy="28.666491"
     inkscape:window-width="1920"
     inkscape:window-height="1001"
     inkscape:window-x="-9"
     inkscape:window-y="-9"
     inkscape:window-maximized="1"
     inkscape:current-layer="icon"
     showguides="true"
     inkscape:export-bgcolor="#0c0c0c00" />
  <defs
     id="defs1">
    <style
       id="style1">.cls-1{fill:none;}</style>
  </defs>
  <title
     id="title1">chat-bot</title>
  <path
     d="M 1.0999992,1.3357143 A 0.54927714,0.54927714 0 0 1 0.64169224,1.0898879 l 0.1309,-0.08701 a 0.39291214,0.39291215 0 0 0 0.65481396,0 l 0.1309,0.08701 a 0.54927714,0.54927714 0 0 1 -0.458307,0.2458264 z"
     id="path1"
     style="stroke-width:0.126091;stroke-dasharray:none"
     inkscape:export-filename="path1.svg"
     inkscape:export-xdpi="96"
     inkscape:export-ydpi="96" />
  <path
     d="M 1.4142852,0.47142858 A 0.15714286,0.15714286 0 1 0 1.5714282,0.62857144 0.15561857,0.15561857 0 0 0 1.4142852,0.47142858 Z"
     id="path2"
     style="stroke-width:0.126091;stroke-dasharray:none" />
  <path
     d="m 0.78571324,0.47142858 a 0.15714286,0.15714286 0 1 0 0.157143,0.15714286 0.15561857,0.15561857 0 0 0 -0.157143,-0.15714286 z"
     id="path3"
     style="stroke-width:0.126091;stroke-dasharray:none" />
  <path
     d="m 1.2363832,2.2 -0.136384,-0.078571 0.314286,-0.55 h 0.471428 A 0.15687571,0.15687571 0 0 0 2.0428562,1.4142861 V 0.31428572 A 0.15687571,0.15687571 0 0 0 1.8857132,0.15714287 H 0.31428524 a 0.15687571,0.15687571 0 0 0 -0.157143,0.15714285 V 1.4142857 a 0.15687571,0.15687571 0 0 0 0.157143,0.1571429 H 1.0214282 V 1.7285714 H 0.31428524 A 0.31423072,0.31423072 0 0 1 -7.6293945e-7,1.4142857 V 0.31428572 A 0.31419142,0.31419143 0 0 1 0.31428524,1.1920929e-8 H 1.8857132 A 0.31419142,0.31419143 0 0 1 2.1999992,0.31428572 V 1.4142857 a 0.31423072,0.31423072 0 0 1 -0.314286,0.3142857 h -0.379924 z"
     id="path4"
     style="stroke-width:1.19159;stroke-dasharray:none" />
  <rect
     id="_Transparent_Rectangle_"
     data-name="&lt;Transparent Rectangle&gt;"
     class="cls-1"
     width="2.2"
     height="2.2"
     x="-0.13750076"
     y="-0.13749999"
     style="stroke-width:0.0687499" />
  <path
     style="fill:#ffffff;stroke-width:0.007488"
     d="m 1.1700772,2.157122 c -0.02987,-0.01745 -0.05621,-0.033618 -0.05852,-0.035929 -0.0023,-0.00231 0.06535,-0.1258504 0.150355,-0.2745319 l 0.154558,-0.2703298 h 0.245596 c 0.268165,0 0.28928,-0.00275 0.332556,-0.043347 0.0119,-0.011166 0.02788,-0.03378 0.03551,-0.050253 0.01312,-0.028343 0.01388,-0.061646 0.01403,-0.61993089 1.37e-4,-0.56940805 -3.2e-4,-0.59097228 -0.01437,-0.61846957 -0.01886,-0.0369739 -0.06025,-0.0729439 -0.09579,-0.0832451 -0.01983,-0.00575 -0.271719,-0.007517 -0.84873,-0.005954 l -0.82052596,0.002222 -0.03644,0.0225308 c -0.02588,0.0160025 -0.04198,0.0333014 -0.05557,0.0597025 l -0.01913,0.0371718 v 0.58426605 c 0,0.46056711 0.0021,0.59008381 0.0097,0.61174481 0.01254,0.035358 0.06664,0.085183 0.103666,0.095463 0.01866,0.00518 0.156567,0.00803 0.39016,0.00806 l 0.36129596,4.17e-5 v 0.07488 0.07488 H 0.65308924 c -0.397013,0 -0.41402,-0.00149 -0.489686,-0.042664 -0.04767,-0.025944 -0.107268,-0.089803 -0.129851,-0.139132 -0.01,-0.02176 -0.02151,-0.063047 -0.02566,-0.091749 -0.01,-0.069001 -0.01008,-1.10504918 -1.37e-4,-1.17538484 0.01841,-0.13004547 0.118621,-0.23953824 0.243211,-0.26573954 0.02534,-0.005329 0.308501,-0.007231 0.87235296,-0.005859 l 0.834833,0.002031 0.05002,0.023696 c 0.08654,0.041 0.149759,0.11280069 0.174185,0.19783464 0.01066,0.0371214 0.01178,0.11033703 0.01,0.65185155 l -0.002,0.61003319 -0.0282,0.05705 c -0.02995,0.060596 -0.08061,0.1139702 -0.134046,0.141231 -0.06287,0.032076 -0.103889,0.036797 -0.320433,0.036885 l -0.206219,8.23e-5 -0.13104,0.2295835 c -0.07207,0.126271 -0.13441,0.230354 -0.138528,0.2312957 -0.0041,9.417e-4 -0.03193,-0.012566 -0.0618,-0.030015 z"
     id="path5" />
  <path
     style="fill:#ffffff;stroke-width:0.007488"
     d="m 0.73767324,0.77345523 c -0.03677,-0.0130357 -0.0624,-0.0347218 -0.08341,-0.0705777 -0.03987,-0.0680268 -0.01932,-0.15313317 0.04844,-0.20071401 0.02844,-0.0199652 0.03872,-0.022771 0.08357,-0.0227966 0.04476,-2.55e-5 0.05512,0.002773 0.08306,0.0224349 0.04696,0.0330465 0.06863,0.0782235 0.06517,0.13586363 -0.0036,0.0597282 -0.02974,0.0993822 -0.08309,0.12596874 -0.04004,0.0199535 -0.07633,0.0230867 -0.113747,0.009821 z"
     id="path6" />
  <path
     style="fill:#ffffff;stroke-width:0.007488"
     d="m 1.3666652,0.77399251 c -0.08962,-0.0330222 -0.130309,-0.13527095 -0.08584,-0.21569815 0.01015,-0.0183499 0.03306,-0.0436219 0.05092,-0.05616 0.0285,-0.0200072 0.03872,-0.0227966 0.08359,-0.0227966 0.04473,0 0.05512,0.002811 0.08302,0.022464 0.07802,0.0549525 0.09003,0.16640654 0.02489,0.23095154 -0.01182,0.011708 -0.031,0.026209 -0.04263,0.0322245 -0.02832,0.0146456 -0.08623,0.019227 -0.113946,0.009015 z"
     id="path7" />
  <path
     style="fill:#ffffff;stroke-width:0.007488"
     d="m 0.96980124,1.3145207 c -0.07064,-0.018706 -0.11637,-0.039273 -0.177084,-0.079635 -0.04512,-0.029999 -0.141156,-0.1247854 -0.141156,-0.1393263 0,-0.00577 0.108142,-0.080829 0.116454,-0.080829 0.0026,0 0.01969,0.01655 0.03788,0.036776 0.07425,0.082591 0.178452,0.1279597 0.29387696,0.1279597 0.112261,0 0.203692,-0.037984 0.283883,-0.1179362 0.02582,-0.025739 0.04872,-0.0468 0.05088,-0.0468 0.0022,0 0.02916,0.017015 0.05998,0.037811 0.03578,0.024147 0.05414,0.041059 0.05081,0.0468 -0.03345,0.057502 -0.131447,0.1406449 -0.209915,0.1780943 -0.108409,0.051738 -0.254364,0.066544 -0.36560196,0.037084 z"
     id="path8" />
</svg>
